<?xml version="1.0" standalone="no"?>
<!DOCTYPE svg PUBLIC "-//W3C//DTD SVG 20010904//EN"
 "http://www.w3.org/TR/2001/REC-SVG-20010904/DTD/svg10.dtd">
<svg version="1.0" xmlns="http://www.w3.org/2000/svg"
 width="238.000000pt" height="286.000000pt" viewBox="0 0 238.000000 286.000000"
 preserveAspectRatio="xMidYMid meet">

<g transform="translate(0.000000,286.000000) scale(0.100000,-0.100000)"
fill="#000000" stroke="none">
<path d="M1095 2686 c-118 -43 -219 -127 -283 -235 -29 -50 -62 -160 -62 -208
l0 -32 -180 -3 c-127 -2 -183 -7 -192 -16 -9 -9 -19 -181 -39 -645 -55 -1298
-54 -1264 -40 -1281 12 -15 109 -16 969 -14 885 3 956 4 965 20 16 25 -64
1903 -81 1920 -9 9 -64 14 -191 16 l-178 3 -6 59 c-18 171 -147 336 -317 407
-55 22 -83 27 -180 30 -103 3 -122 1 -185 -21z m335 -132 c117 -55 219 -191
223 -297 l2 -46 -390 -2 -390 -3 3 49 c5 99 99 237 197 288 73 37 117 47 205
44 70 -2 97 -8 150 -33z m603 -488 c10 -11 16 -56 21 -168 3 -84 17 -421 31
-748 13 -327 26 -628 28 -669 7 -123 98 -111 -846 -111 -661 0 -817 2 -831 13
-23 17 -24 9 14 892 17 380 30 709 30 732 0 79 -59 73 785 73 639 0 756 -2
768 -14z"/>
<path d="M742 2015 c-77 -65 -3 -175 93 -139 44 17 54 103 16 138 -33 30 -74
30 -109 1z"/>
<path d="M1700 2027 c-78 -39 -51 -157 35 -157 80 0 115 93 54 144 -34 29 -52
32 -89 13z"/>
<path d="M742 1718 c-53 -18 -118 -82 -136 -135 -83 -243 178 -691 578 -991
38 -29 74 -52 81 -52 37 0 276 208 379 329 233 276 338 544 280 714 -20 59
-86 119 -149 137 -102 29 -254 -6 -426 -97 l-85 -46 -76 42 c-125 68 -230 103
-328 107 -47 2 -100 -2 -118 -8z m201 -123 c62 -16 198 -81 264 -126 52 -36
64 -36 116 -1 132 89 269 142 367 142 57 0 65 -3 96 -34 32 -32 34 -39 34 -98
0 -134 -76 -293 -238 -495 -75 -95 -203 -220 -274 -269 l-39 -28 -37 20 c-20
10 -91 73 -157 139 -169 169 -278 326 -334 481 -52 142 -39 245 33 274 33 14
106 11 169 -5z"/>
</g>
</svg>
